<svg viewBox="0 0 48 48" fill="currentColor" xmlns="http://www.w3.org/2000/svg">
  <mask id="food_B" maskUnits="userSpaceOnUse" x="0" y="0" width="48" height="48">
    <rect width="48" height="48" fill="#000"></rect>
    <path d="M13,7 L15.4,7 L15.4,17 L13,17 Z" fill="#fff"></path><path d="M16.8,7 L19.2,7 L19.2,17 L16.8,17 Z" fill="#fff"></path><path d="M20.6,7 L23,7 L23,17 L20.6,17 Z" fill="#fff"></path><path d="M12.3,16.5 L23.7,16.5 L21.7,23 L14.3,23 Z" fill="#fff"></path><path d="M16.8,23 L19.2,23 L19.2,41 L16.8,41 Z" fill="#fff"></path><path d="M30,7 L34.5,11 L34.5,25 L30,25 Z" fill="#fff"></path><path d="M30,25 L33.6,25 L33.6,41 L30,41 Z" fill="#fff"></path><path d="M40,-2 L46.5,-2 L11,50 L4.5,50 Z" fill="#000"></path>
  </mask>
  <rect width="48" height="48" fill="currentColor" mask="url(#food_B)"></rect>
</svg>