<svg viewBox="0 0 48 48" fill="currentColor" xmlns="http://www.w3.org/2000/svg">
  <mask id="car_A" maskUnits="userSpaceOnUse" x="0" y="0" width="48" height="48">
    <rect width="48" height="48" fill="#000"></rect>
    <path d="M4,31 L9,31 L14,21 L30,21 L37,31 L44,31 L44,36 L4,36 Z" fill="#fff"></path><path d="M18.8,37.0 L15.0,40.8 L11.2,37.0 L15.0,33.2 Z" fill="#fff"></path><path d="M36.8,37.0 L33.0,40.8 L29.2,37.0 L33.0,33.2 Z" fill="#fff"></path><path d="M16,23 L22.5,23 L22.5,30 L14.5,30 Z" fill="#000"></path><path d="M25.5,23 L31,23 L36.5,30 L25.5,30 Z" fill="#000"></path><path d="M16.5,37.0 L15.0,38.5 L13.5,37.0 L15.0,35.5 Z" fill="#000"></path><path d="M34.5,37.0 L33.0,38.5 L31.5,37.0 L33.0,35.5 Z" fill="#000"></path>
  </mask>
  <rect width="48" height="48" fill="currentColor" mask="url(#car_A)"></rect>
</svg>