<svg viewBox="0 0 48 48" fill="currentColor" xmlns="http://www.w3.org/2000/svg">
  <mask id="ajustes_active" maskUnits="userSpaceOnUse" x="0" y="0" width="48" height="48">
    <rect width="48" height="48" fill="#000"></rect>
    <path d="M10.75,9 L13.25,9 L13.25,39 L10.75,39 Z" fill="#fff"></path><path d="M22.75,9 L25.25,9 L25.25,39 L22.75,39 Z" fill="#fff"></path><path d="M34.75,9 L37.25,9 L37.25,39 L34.75,39 Z" fill="#fff"></path><path d="M18.5,16.0 L12.0,22.5 L5.5,16.0 L12.0,9.5 Z" fill="#fff"></path><path d="M30.5,30.0 L24.0,36.5 L17.5,30.0 L24.0,23.5 Z" fill="#fff"></path><path d="M42.5,22.0 L36.0,28.5 L29.5,22.0 L36.0,15.5 Z" fill="#fff"></path><path d="M40,-2 L46.5,-2 L11,50 L4.5,50 Z" fill="#000"></path>
  </mask>
  <rect width="48" height="48" fill="currentColor" mask="url(#ajustes_active)"></rect>
</svg>