<svg viewBox="0 0 48 48" fill="currentColor" xmlns="http://www.w3.org/2000/svg">
  <mask id="missions_active" maskUnits="userSpaceOnUse" x="0" y="0" width="48" height="48">
    <rect width="48" height="48" fill="#000"></rect>
    <path d="M43.4,32.0 L32.0,43.4 L16.0,43.4 L4.6,32.0 L4.6,16.0 L16.0,4.6 L32.0,4.6 L43.4,16.0 Z" fill="#fff"></path>
    <path d="M36.9,29.4 L29.4,36.9 L18.6,36.9 L11.1,29.4 L11.1,18.6 L18.6,11.1 L29.4,11.1 L36.9,18.6 Z" fill="#000"></path>
    <path d="M29.5,26.3 L26.3,29.5 L21.7,29.5 L18.5,26.3 L18.5,21.7 L21.7,18.5 L26.3,18.5 L29.5,21.7 Z" fill="#fff"></path>
    <path d="M40,-2 L46.5,-2 L11,50 L4.5,50 Z" fill="#000"></path>
  </mask>
  <rect width="48" height="48" fill="currentColor" mask="url(#missions_active)"></rect>
</svg>