<svg viewBox="0 0 48 48" fill="currentColor" xmlns="http://www.w3.org/2000/svg">
  <mask id="proficiency_B" maskUnits="userSpaceOnUse" x="0" y="0" width="48" height="48">
    <rect width="48" height="48" fill="#000"></rect>
    <path d="M19.4,3.5 L28.6,3.5 L26.3,9.7 L32.5,12.3 L35.3,6.3 L41.7,12.7 L35.7,15.5 L38.3,21.7 L44.5,19.4 L44.5,28.6 L38.3,26.3 L35.7,32.5 L41.7,35.3 L35.3,41.7 L32.5,35.7 L26.3,38.3 L28.6,44.5 L19.4,44.5 L21.7,38.3 L15.5,35.7 L12.7,41.7 L6.3,35.3 L12.3,32.5 L9.7,26.3 L3.5,28.6 L3.5,19.4 L9.7,21.7 L12.3,15.5 L6.3,12.7 L12.7,6.3 L15.5,12.3 L21.7,9.7 Z" fill="#fff"></path>
    <path d="M40,-2 L46.5,-2 L11,50 L4.5,50 Z" fill="#000"></path>
    <path d="M30.0,21.5 L30.0,26.5 L26.5,30.0 L21.5,30.0 L18.0,26.5 L18.0,21.5 L21.5,18.0 L26.5,18.0 Z" fill="#000"></path>
  </mask>
  <rect width="48" height="48" fill="currentColor" mask="url(#proficiency_B)"></rect>
</svg>