<svg viewBox="0 0 48 48" fill="currentColor" xmlns="http://www.w3.org/2000/svg">
  <mask id="hist_clock" maskUnits="userSpaceOnUse" x="0" y="0" width="48" height="48">
    <rect width="48" height="48" fill="#000"></rect>
    <path d="M42.5,31.7 L31.7,42.5 L16.3,42.5 L5.5,31.7 L5.5,16.3 L16.3,5.5 L31.7,5.5 L42.5,16.3 Z" fill="#fff"></path><path d="M37.4,29.5 L29.5,37.4 L18.5,37.4 L10.6,29.5 L10.6,18.5 L18.5,10.6 L29.5,10.6 L37.4,18.5 Z" fill="#000"></path><path d="M22.6,24 L25.4,24 L24,10.5 Z" fill="#fff"></path><path d="M24,22.7 L24,25.3 L35,24 Z" fill="#fff"></path><path d="M26.2,24.0 L24.0,26.2 L21.8,24.0 L24.0,21.8 Z" fill="#fff"></path>
  </mask>
  <rect width="48" height="48" fill="currentColor" mask="url(#hist_clock)"></rect>
</svg>